<?xml version="1.0" standalone="no"?>
<!DOCTYPE svg PUBLIC "-//W3C//DTD SVG 20010904//EN"
 "http://www.w3.org/TR/2001/REC-SVG-20010904/DTD/svg10.dtd">
<svg version="1.0" xmlns="http://www.w3.org/2000/svg"
 width="537.000000pt" height="348.000000pt" viewBox="0 0 537.000000 348.000000"
 preserveAspectRatio="xMidYMid meet">

<g transform="translate(0.000000,348.000000) scale(0.100000,-0.100000)"
fill="#000000" stroke="none">
<path d="M210 1740 l0 -1520 235 0 235 0 0 570 0 570 303 0 302 -1 320 -569
319 -570 269 0 c236 0 268 2 263 15 -3 8 -156 277 -340 598 -184 321 -337 589
-340 597 -4 11 21 29 87 63 174 91 299 215 382 382 75 150 89 219 89 435 0
162 -2 195 -22 269 -106 387 -409 623 -862 671 -52 5 -353 10 -667 10 l-573 0
0 -1520z m1269 1075 c245 -58 385 -239 385 -500 0 -244 -110 -408 -332 -494
l-67 -26 -392 -3 -393 -3 0 520 0 521 368 0 c293 0 380 -3 431 -15z"/>
<path d="M2870 1740 l0 -1521 748 3 c821 4 799 3 996 69 113 37 194 82 290
160 92 73 156 156 212 274 56 118 75 202 81 358 8 195 -22 340 -102 482 -43
77 -167 211 -235 255 l-50 32 69 74 c80 85 142 197 173 311 30 109 29 313 -1
428 -69 261 -249 451 -511 538 -152 51 -148 50 -932 54 l-738 4 0 -1521z
m1493 1071 c89 -35 156 -95 197 -176 34 -66 35 -72 35 -179 0 -104 -2 -115
-32 -178 -51 -109 -139 -182 -258 -212 -49 -13 -134 -16 -502 -16 l-443 0 0
395 0 396 473 -3 c469 -3 472 -3 530 -27z m-4 -1206 c128 -30 247 -118 304
-223 74 -136 76 -346 6 -484 -33 -65 -122 -151 -192 -187 -113 -57 -154 -61
-659 -61 l-458 0 0 485 0 485 468 0 c381 0 479 -3 531 -15z"/>
</g>
</svg>
